<?xml version="1.0" encoding="UTF-8"?><svg id="Layer_2" xmlns="http://www.w3.org/2000/svg" viewBox="0 0 1171.1 126.02"><g id="Layer_2-2"><g id="uuid-d5000238-f49f-4de2-bed6-695faa5d82c5"><g id="uuid-1751f011-c1ee-44ba-9316-8ac5a768d209"><g id="uuid-919e82f6-08e5-483a-9d35-9412aa37470f"><path d="M84.66,109.87h-37.89l-4.12,12.21H0L46.45,3.8h40.27l46.61,118.27h-44.71l-3.96-12.21h0ZM75.31,80.54l-9.2-28.38-9.51,28.38h18.71Z" style="fill:#fff;"/><path d="M173.6,72.61v49.46h-41.22V3.8h38.84l38.21,48.51V3.8h41.22v118.27h-38.05l-39-49.46h0Z" style="fill:#fff;"/><path d="M339.58,44.23c-5.55-3.8-12.84-5.07-20.29-5.07-14.74,0-26.32,10.15-26.32,23.62s11.57,23.94,26.32,23.94c7.45,0,14.74-1.27,20.29-5.07v38.84c-7.13,3.33-14.74,4.12-23.15,4.12-38.52,0-64.68-27.74-64.68-61.83S277.91,1.27,316.43,1.27c8.4,0,16.33.95,23.15,4.28v38.68Z" style="fill:#fff;"/><path d="M343.7,3.8h41.22v36.62h28.06V3.8h41.22v118.27h-41.22v-44.39h-28.06v44.39h-41.22V3.8Z" style="fill:#fff;"/><path d="M590.86,62.78c0,34.88-30.28,63.1-67.7,63.1s-67.85-28.22-67.85-63.1S485.43,0,523.16,0s67.7,28.06,67.7,62.78ZM496.53,63.1c0,14.11,11.73,24.89,26.63,24.89s26.48-10.94,26.48-24.89-11.73-25.21-26.48-25.21-26.63,10.62-26.63,25.21h0Z" style="fill:none;"/><path d="M634.46,86.72h-1.43v35.35h-41.06V3.8h42.17c22.99,0,55.65,1.58,55.65,43.44,0,12.68-7.29,22.2-17.12,28.7l28.7,46.13h-48.35l-18.55-35.35h-.01ZM633.03,37.57v23.46h3.49c8.24,0,13.32-2.85,13.32-12.37s-7.29-11.1-13.32-11.1h-3.49Z" style="fill:#fff;"/><path d="M787.13,32.66c-6.66-4.28-14.9-6.34-23.62-6.34-21.4,0-38.05,16.65-38.05,36.31s16.65,36.94,38.05,36.94c8.72,0,16.96-2.06,23.62-6.34v27.11c-7.61,3.65-16.17,5.23-25.37,5.23-37.42,0-64.68-28.06-64.68-62.78S724.34.32,761.76.32c9.2,0,17.76,1.74,25.37,5.39v26.95Z" style="fill:#fff;"/><path d="M918.55,62.78c0,34.88-28.85,63.1-65.48,63.1s-65.64-28.22-65.64-63.1S816.14,0,853.08,0s65.48,28.06,65.48,62.78h-.01ZM815.82,62.94c0,20.45,16.17,37.1,37.26,37.1s37.1-16.65,37.1-37.1-16.17-37.1-37.1-37.1-37.26,16.49-37.26,37.1Z" style="fill:#fff;"/><path d="M949.94,84.03h-.32v38.05h-28.22V3.8h32.98c26.48,0,51.68,8.72,51.68,40.11,0,17.44-11.57,29.01-26.32,35.04l31.07,43.12h-33.77l-27.11-38.05h.01ZM949.62,28.85v32.98h7.29c12.52,0,21.24-6.34,21.24-17.44,0-10.31-7.45-15.54-21.56-15.54h-6.98s.01,0,.01,0Z" style="fill:#fff;"/><path d="M1040.94,88.62v33.45h-28.22V3.8h34.72c25.53,0,50.1,9.04,50.1,41.85,0,30.6-27.27,42.96-50.57,42.96h-6.03ZM1040.94,28.85v35.2h6.5c13.32,0,21.88-6.66,21.88-18.39,0-10.94-6.98-16.8-21.88-16.8h-6.5Z" style="fill:#fff;"/><path d="M1163.33,29.01c-6.02-2.85-15.06-4.76-22.83-4.76-10.31,0-15.06,3.49-15.06,9.04s5.87,10.3,18.23,19.18c18.23,13.79,27.43,22.99,27.43,37.73,0,21.24-19.66,33.77-44.55,33.77-9.35,0-22.51-1.74-28.85-4.28l.16-24.42c6.82,2.85,18.07,5.87,28.54,5.87s15.7-4.91,15.7-10.46-6.66-11.1-19.82-20.45c-20.29-14.43-26.32-23.31-26.32-36.94,0-16.49,13.32-31.87,43.28-31.87,7.93,0,17.44,1.11,24.26,3.65l-.16,23.94h-.01Z" style="fill:#fff;"/></g><g id="uuid-f57182aa-b68c-45d5-aba2-134ba62363e0"><path d="M528.42.32l-5.22-.18s-.56,117.18.12,116.7,38.19-19.97,38.19-19.97l22.08-18.02-4.38-41.13L528.42.32Z" style="fill:#4d4d4e;"/><path d="M523.18.16l.04,103.75.18,5.8s-56.25-15.73-56.64-16.12c-.49-.49-1.66-39.61-1.66-39.61L518.24.32" style="fill:gray;"/><path d="M538.32,81.56c1.45.93,3.21,1.33,4.95,1.11,4.41-.54,13.09-2.27,19.67-7.66,9.2-7.54,11.16-23.18,11.16-23.18-3.23,9.63-16.93,16.27-16.93,16.27l7.83,1.45c-5.86,9.35-20.84,10.71-26.33,10.89-.63.02-.87.78-.35,1.12h0Z" style="fill:#f2f2f3;"/><path d="M526.24,101.18l1.08.82s3.82-4.27,18.69-11.36c14.88-7.09,22.22-17.36,22.22-17.36,0,0-7.73,9.36-22.41,15.91-14.68,6.54-19.57,12-19.57,12h-.01Z" style="fill:#f2f2f3;"/><path d="M512.34,93.91s-12.82-6.82-19.57-9.36-13.9-12-13.9-12c4.8,9.72,16.44,14.72,27.01,20,9.53,4.75,16.12,10.32,17.32,11.37V.15c-.39,0-.78,0-1.17.01v85.85c-.39,13-9.69,7.91-9.69,7.91h0Z" style="fill:#f2f2f3;"/><path d="M528.42.32l.94,49.98s-1.98,28.42,14.31,28.01,20.48-8.18,20.48-8.18l-9.91-1.64s14.75-6.54,20.26-19.02c0,0,7.27,17.38-2.2,29.45l-2.64-5.93s-5.28,10.02-23.12,17.99c-15.74,7.04-21.88,13.92-23.1,15.44v.31s-.04-.06-.12-.16c-.08.1-.12.16-.12.16v-.31c-1.22-1.52-7.36-8.4-23.1-15.44-17.84-7.98-23.12-17.99-23.12-17.99l-2.64,5.93c-9.47-12.06-2.2-29.45-2.2-29.45,5.5,12.47,20.26,19.02,20.26,19.02l-9.91,1.64s4.18,7.77,20.48,8.18c16.29.41,14.31-28.01,14.31-28.01l.94-49.98c-35.05,2.42-62.67,29.6-62.67,62.76s30.34,62.94,67.77,62.94,67.77-28.18,67.77-62.94S563.47,2.74,528.42.32Z" style="fill:#fff;"/></g></g></g></g></svg>