<?xml version="1.0" encoding="UTF-8"?><svg id="Layer_1" xmlns="http://www.w3.org/2000/svg" viewBox="0 0 955.19 940.68"><path d="M.42,911.95c-.49-.04-.58-.72-.12-.88,10.11-3.51,27.2-18.87,33.14-23.49,3.83-2.98,16.4-5.79,21.63-6.37s11.07.63,16.47-.57c1.46-8.78,7.71-23.59,14.43-29.53,3.67-3.25,13.03-6.18,14.75-10.25,3.04-7.19,1.92-25.63,2.76-34.24,1.75-17.99,10.12-23.03,20.79-36.21,1.14-18.27,1.5-36.55,2.16-54.84.92-25.51.63-51.48,2.05-76.95.7-12.56,2.66-18.97,5.51-30.49,3.75-15.15-.13-27.84-.56-42.48-1.14-38.65-.05-77.09,3.94-115.15,2.7-25.8-3.97-51.99,1.2-77.91-.33-4-11.32-12.73-14.61-16.48-2.47-2.82-4.65-6-7.28-8.72,1.15-14.29-6.69-39.65,13.53-43.06,8.79-1.48,11.48,2.83,15.2-7.8,2.17-6.19,8.55-29.51,8.84-35.24s-1.69-11.31-.55-17.46c1.01-5.42,18.84-38.5,22.79-43.21,5.61-6.69,12.13-6.94,19.94-9.57-.05-4.59-4.57-7.12-2.91-12.4,12.52-20.9,31.6-38.29,46.36-57.64,6.54-8.56,14.06-24.07,21.67-30.33,6.08-5,45.43-29.64,51.65-31.35,4.24-1.17,8.31-.95,13.25-2.75,9.13-3.32,42.93-23.19,49.01-29.99,4.9-5.47,2.36-6.44,11.22-9.78,12.77-4.82,48.58-15.71,61.25-16.75,11.29-.93,65.9,7.28,76.81,11.26,8.58,3.12,14.83,11.71,24.04,15.96,12.66,5.84,46.53,13.96,54.68,22.32,2.47,2.53,3.75,6.5,6.67,9.33,8.01,7.78,23.82,13.53,32.62,21.41,5.59,2.87,10.46-4.59,15.66-2.74l48.05,33c19.14,31.76,43.4,59.94,65.28,89.79.69,6.49-1.41,13.27.16,19.77.81,3.37,6.43,7.48,9.08,11.92,11.87,19.84,17.19,45.1,19.65,67.84,8.1,4.35,27.02,3.96,29.59,13.92,3.48,13.53-1.08,31.9-9.78,42.74-2.35,2.93-10.55,9.28-11,12.08,1.99,15.19.68,30.66.98,45.99.1,5.12,1.77,10.31,1.07,15.98-1,8.07-11.12,16.82-7.1,26.06,2.51,5.76,6.17,4.17,7.05,13.94,2.51,27.68-1.24,58.07,3.06,85.94l-.08,55.08c-.11,2.03.97,4.02,1.03,5.97,1.69,52.68,3.01,105.23,7.22,157.78l14.56,15.44,7.5,54.5c3.57,4.47,7.84,8.13,11.14,12.86,2.86,4.09,8.08,17.94,13.84,16.73,5.39-1.13,7.12-10,16.99-8.6,16.56,2.34,28.94,29.2,41.49,31.55,8.71,1.63,14.46,1.79,22.95,6.05s1.58,5.82-4.43,6.93c-22.08,4.05-45.72.78-67.79,2.21-6.86.45-11.87,3.16-17.02,3.98-7.82,1.25-34.09-.18-40.79-4.09-2.07-1.21-3.5-4.35-5.71-4.4s-15.67,3.01-14.94,6.03l15.99,7.5-51.99,2.02c-.43,2.06,1.02,2.32,2.3,3.19,4.56,3.09,12.31,5.61,17.69,6.81l-2.71,3.79-90.84.25c-20.62-5.15-41.76-8.04-62.96-10.04-8.07-.76-16.53.69-24.49-2.02,2.9-2.52,9.74-5.01,13.56-5.93,8.36-2.01,17.91.35,24.43-6.57-6.91-2.86-15.1-1.16-22.54-1.45-30.2-1.21-62.4.98-91.95-1.05-3.88-.27-25.02-3.64-26.5-6.5-.43-1.79.68-1.58,1.97-1.98,10.29-3.13,24.97-.93,36.26-2.77,5.68-.92,8.68-4.26,13.5-5.5,6.26-1.61,15.85-.06,20.55-1.45,2.74-.81,15.31-13.71,21.71-16.29,7.07-2.85,13.75-.58,21.01-1.99,6.97-17.27,21.21-29.09,34-41.99,8.81-1.36,18.5.68,25.35,6.41,10.31-6.85,11.3-17.96,12.63-29.44.8-6.94.65-14.77,1.21-21.79,2.91-5.07,14.14-11.84,14.85-17.15l-.06-104.06c-.14-5.32,6.92-13.56,6.93-18,0-2.19-3.72-7.29-4.49-10.44-4.87-19.79-.72-58.02-.4-79.52.74-48.73,1.25-97.29-.08-146-.34-12.57,2.16-40.69-4.52-50.48-2.2-3.22-11.9-11.89-12.41-14.59l.14-27.82c.8-2.42,9.54-4.21,9.76-8.08-3.9-13.08-4.98-27.78-8.2-40.8-5.28-21.37-21.45-55.71-34.89-73.11-7.7-9.96-20.82-16.14-30.85-25.15-25.08-22.55-44.6-43.55-75.63-59.37-9.56-4.88-21.29-9.74-31.35-13.13.22,1.03,5.34,3.68,1.51,3.96-2.26.17-19.97-7.99-24.75-9.23-14.61-3.78-15.96.23-28.56,2.96-5.53,1.2-11.57.72-16.49,2.51s-10.83,6.52-16.03,8.97c-9.96,4.69-20.29,6.85-30.03,10.97-29.02,12.27-62.89,38.5-86.17,59.83-37.54,34.4-60.29,78.02-71.43,127.68-.73,4.92,5.7,7.32,7.97,10.84,4.03,6.28,4.32,27.25.83,33.84-2.78,5.25-12.34,10.03-12.83,15.25-.35,3.76,1.63,8.69.91,13.82-.63,4.49-4,8.2-3.99,13.09,0,3.38,1.82,6.29,2.12,9.96,2.31,27.87-1.83,58.86-.02,87.07-7.03,13.89-7.44,22.13,0,35.95-.58,69.42.32,138.78,2.02,207.98.24,9.7-1.64,26.54-.02,35.02.58,3.07,9.03,11.69,11.03,16.97,7.12,18.88,8.07,45.78,14.53,65.47l12.07,11.97c7.07-4.83,16.37-8.35,25.01-8.8,4.93-.26,8.06,2.09,11.81,4.94,9.58,7.26,17.35,17.7,27.07,24.94l1.43.03c3.38-9.96,11.46-5.06,18.38-1.85s11.36,7.85,19.27,8.73c23.74,2.64,49.77,1.07,73.86,3.14,1.32.11,15.79,1.22,12.51,3.98-14.78,1.08-29.65,4.3-44.45,5.05-34.38,1.73-75.5,1.1-110.08,0-4.07-.13-12.71-3.6-7.71,3.96l46.96,9.79c1,.57,2.65,1.19,2.29,2.69-.88,3.68-32.96,5.03-38.37,5.63-14.18,1.58-15.71,1.76-30.13.89-12.75-.77-20.55,2.12-31.95,3.02-10.21.8-27.18-1.24-38.03-2.05-10.49-.78-21.01-2.32-31.51-2.98,2.66,3.56,7.23,5.38,10.7,7.76.71.48,2.83.62,1.3,2.22-3.16,3.3-42.55,3.79-49.54,3.97-12.88.34-25.93,1.18-38.95.03-2.93-.26-20.65-2.79-21.5-4.01-.16-1.08-.08-2.02.46-3,2.8-5.04,24.36-3.78,29.55-10.46.84-1.08,1.44-.84,0-2.04-31.03-4.33-62.68-5.29-94.06-6.48l-.89-.06-23.11-2.11ZM451.46,69.12c-8.6,3.02-16.88,6.95-25.48,10.01-4.19,1.49-17.84,6.81-21.12,6.94-5.33.22-11.34-10.11-15.9-12.94-6.8,6.99,8.94,12.63,6,18.96-2.52,5.44-29.13,17.73-35.45,23.58-1.54,1.43-3.18,3.15-3.05,5.44,1.75.34,2.89-.46,4.33-1.16,14.59-7.01,30.14-20.98,44.99-29.01,12.48-6.75,26.45-10.52,39.03-16.97,2.38-1.22,5.49-2.22,6.64-4.85ZM693.45,195.11c-.84-3.86-3.53-7.55-5.57-10.92-12-19.74-31.09-34.43-48.94-49.06-2.08-1.7-4.92-4.38-7.47-5.01l61.99,64.99ZM315.98,138.12c-1.72.4-22.19,21.86-25.04,24.98-4.21,4.61-19.82,22.23-21.04,26.98-.35,1.36-.51,4.09,1.05,4.02.99-.04,10.45-13.27,12.47-15.51,10.75-11.86,23.19-22.26,34.5-33.56,2.18-1.51.51-7.48-1.96-6.91ZM261.45,205.11c-2.57,1.79-4.87,4.2-6.96,6.53-5.43,6.04-17.53,20.93-21.46,27.54-1.09,1.84-8.88,16.89-9.13,17.9-.44,1.79-.46,1.83,1.08,3.04,1.46.31,2.12-1.23,2.91-2.07,6.5-7,11.94-19.88,18.6-27.4l14.97-25.52ZM732.61,270.94c-3.82-2.39-10.61-39.41-20.15-42.83,3.87,16.44,12.68,32.17,17.25,48.24,1.46,5.13,4.38,16.66,4.55,21.56.19,5.49-9.67,4.82-8.8,11.2l39.99-2.01-23.04-6.44c-6.04-2.08-7.13-18.22-7.88-23.91.64-1.94,13.46-4.55,11.92-10.64-.51-.64-9.77,7.38-13.83,4.83ZM215.45,293.11c-2.83-.51-1.64.67-2.25,2.19-1.23,3.1-1.09,7.42-4,9.05-5.94,3.33-24.68,1.86-32.28,2.72-1.5.17-3.08.21-3.46,2.03,14.65,1.99,29.36,2.17,44.01,0l-2.01-15.98ZM746.45,505.1c-3.03-11.47-5.12-23.64-5.99-35.5-.45-6.19.49-12.85,0-19-.09-1.16-.31-4.48-2-4.49-.7,12.52-.88,24.97-.97,37.54-.02,2.38-1.25,4.6-1.04,6.87.18,1.94,7.82,16.94,9.99,14.59ZM208.47,665.11c1.82-.38,1.86-1.97,2.03-3.46,1.57-13.95-.83-29.11-1.08-43-.23-13,1-27.3.05-40.05-.07-.98-.67-4.53-1.51-4.5l-3.54,46.47c.48,6.89-.5,14.28,0,21.08.59,8.06,4.69,15.3,4.05,23.46ZM741.45,693.11c-2.76-2.54-3.94,8.26-4.03,9.46-.95,12.19-1.37,38.28.02,50.06.26,2.2.74,4,2.53,5.47,2.93-14.19,1.16-29.86,1.45-44.54.13-6.59,2.51-13.52.03-20.46ZM210.44,717.11c-1.46-1.4-1.81.08-1.99,1.48-.55,4.34.41,9.52-.01,14-1.2,12.56-8.88,24.44,3.01,34.52,1.32-16.58,2.11-33.57-1.01-50ZM780.46,786.12c-14.66-3.25-31.04-5-46-3,.27,1.62,1.92,1.84,3.2,2.29,8.75,3.06,32.03,3.89,41.32,2.7,1.38-.18,2.99-.61,1.48-1.99ZM744.45,864.1c1.11-1.03-4.37-5.24-5.04-5.51-4.42-1.78-18.2,9.22-22.57,11.4-7.42,3.69-14.07,2.91-20.35,9.65-6.52,6.99-12.78,16.97-19.03,24.46,12.81-.34,16.3-14.15,24.06-19.43,4.5-3.05,10.12-3.57,14.87-6.13,10.15-5.46,15.23-19.23,28.06-14.44ZM226.47,878.11l16.98,22.5c4.37,2.16,10.26-1.76,14.35-.34,3.02,1.05,7.38,15.47,12.64,10.35l-13.03-16.95-30.94-15.55Z"/><path d="M386.19,218.84c-2.55,3.09-16.4,4.06-20.73,5.26-1.58-1.7,2.39-14.23,3.8-16.69,1.96-3.42,19.85-16.43,23.56-15.23,2.37,1.15,1.77,4.01,1.41,6.18-.27,1.62-7.34,19.62-8.04,20.47Z"/><path d="M605.45,342.11c-2.6-11.4-5.7-25.98-11.16-36.33-2.86-5.41-9.08-10.57-11.02-16.01-.4-1.12-.91-2.61.69-2.64,4.19-.09,22.16,17.39,25.48,21.5,40.15,49.73,37.86,132.79,28.86,192.81-9.16,61.11-31.35,120.2-65.42,171.58-18.42,27.78-59.43,70.62-88.39,86.61-21.47,11.85-49.79,25.86-74.48,27.52-4.13.28-31.46.83-31.52-3.54.83-.91,1.48-1.83,2.72-2.26,6.59-2.29,18.28-1.67,26.26-3.74,32.25-8.32,76.95-46.81,100.52-70.48,68.52-68.82,107.54-188.35,87.18-284.23-12.73-59.94-47.62-129.88-121.38-97.97-80.36,34.77-132.4,164.38-76.74,238.09,57.17,75.7,146.26-54.58,102.24-110.24-2.98-3.76-6.5-7.44-11.32-8.68.93,4.19,3.73,7.75,5.25,11.75,9.93,26.03,6.63,53.28-5.58,77.94-17.79,35.91-60,50.44-85.41,13.05-46.53-68.48,37.79-221.72,122.21-189.21,63.33,24.39,58.04,126.5,46.55,180.52-14.25,67-64.16,154.19-140.17,160.83-37.78,3.3-80.48-24.2-88.33-62.39l2.45-1.48c16.69,15.15,30.59,31.11,54.15,34.86,26.6,4.24,40.53-1.35,62.28-15.45,34.43-22.31,58.59-56.35,70.58-95.42,4.56-14.85,9.01-31.52,9.49-46.99l-11.13,30.35c-17.27,38.83-59.79,92.9-105.37,96.63-58.01,4.74-86.35-42.67-90.47-94.49-6.94-87.23,31.32-189.51,102.07-242.91,50.3-37.97,108.42-31.86,149.95,14.89,7.09,7.98,12.71,16.95,18.96,25.53ZM546.45,453.1c-2.74-26.44-11.99-58.2-37.63-70.85s-42.27.26-60.37,16.34c-19.76,17.57-34.07,37.32-36.98,64.51l21.57-34.92c25.75-34.22,73.19-45.21,98.84-4l14.57,28.92Z"/><path d="M643.45,293.1c-2.89.56-1.59-.84-2.25-2.19-26.23-53.97-77.2-86.76-137.99-66.55-63.57,21.14-106.33,56.89-141.78,113.22-36.78,58.45-53.67,116.64-56.02,185.98-.75,22.04,3.15,41.98,6.04,63.54-1.6.35-2.06-.49-3-1.49-3.84-4.1-12.74-30.84-14.49-37.51-11.31-42.95-1.81-110.64,12.23-152.76,29.09-87.25,114.88-175.38,205.84-196.16,49.15-11.23,77.46.75,108.94,38.92,12.1,14.67,21.85,35.87,22.48,55.01Z"/><path d="M415.96,732.11l1.02,2.01c-20.68,11.2-43.8,10.61-64.87.85-23.39-10.83-35.93-26.7-48.43-48.57-12.02-21.03-15.01-46.56-18.2-70.29,9.19,11.15,14.69,25.91,21.82,38.67,19.19,34.34,35.36,57.05,73.93,71.07,3.48,1.27,17.2,6.25,19.75,6.25h15Z"/><path d="M614.57,692.99c-3.92-9.11,2.48-14.77,5.39-21.88,3.07-7.5,4.3-13.9,9.07-20.93,2.7-3.98,13.95-18.27,15.48-6.62,1.45,11.1-.07,33.28-8.51,41.58-2.84,2.79-18.3,10.49-21.43,7.85Z"/><path d="M669.45,517.11c.05,13.01.17,27.4-3.49,40-2,6.87-5.4,10.93-11.98,14-1.46-.93-1.39-1.96-1.57-3.46-1.24-10.36,8.93-40.11,14.8-49.26.63-.98-.1-1.79,2.24-1.28Z"/><path d="M570.19,746.24c7.31-1.09,4.29,13.07,2.11,17.21-3.68,7-13.57,12.83-19.71,5.96-.79-3.19,14.17-22.65,17.6-23.16Z"/><path d="M296.1,749.19c5.65-1.84,18.09,14.54,19.14,19.65.4,1.94.75,4.22-.71,5.84-3.73,2.67-14.37-5.38-16.52-8.62-1.85-2.8-5.67-15.65-1.91-16.87Z"/><path d="M320.13,264.26c1.71-.45,2.38-.02,3.24,1.43.19.9-4.36,16.51-5.03,17.8-1.53,2.91-11.41,12.75-14.94,10.2-2.57-3.65,1.01-8.88,2.89-12.24,1.46-2.62,11.96-16.69,13.84-17.18Z"/><path d="M520.14,819.24c3.42-.3,3.93,7.18,2.79,9.86-1.9,4.44-15.65,12.78-16.17,2.36-.23-4.49,9.92-11.91,13.38-12.22Z"/></svg>