<?xml version="1.0" encoding="UTF-8"?><svg id="Layer_2" xmlns="http://www.w3.org/2000/svg" viewBox="0 0 135.78 126.02"><g id="uuid-d5000238-f49f-4de2-bed6-695faa5d82c5"><g id="uuid-1751f011-c1ee-44ba-9316-8ac5a768d209"><path d="M135.55,62.78c0,34.88-30.28,63.1-67.7,63.1S0,97.66,0,62.78,30.12,0,67.85,0s67.7,28.06,67.7,62.78ZM41.22,63.1c0,14.11,11.73,24.89,26.63,24.89s26.48-10.94,26.48-24.89-11.73-25.21-26.48-25.21-26.63,10.62-26.63,25.21h0Z" style="fill:none;"/><g id="uuid-f57182aa-b68c-45d5-aba2-134ba62363e0"><path d="M72.61.3l-3.06-.11c-.91-.03-1.67.69-1.67,1.6-.06,14.25-.5,115.49.13,115.04s35.54-18.59,38.05-19.9c.1-.05.19-.11.27-.18l21.27-17.36c.42-.35.64-.88.59-1.42l-4.21-39.55c-.05-.45-.28-.86-.65-1.13L73.51.62c-.26-.19-.58-.3-.9-.31Z" style="fill:#4d4d4e;"/><path d="M67.87.16l.04,103.75.11,3.6c.03,1.09-.99,1.9-2.05,1.61-10.24-2.87-54.18-15.18-54.53-15.53-.45-.45-1.48-33.7-1.64-38.92-.01-.44.16-.86.47-1.18L62.93.32" style="fill:gray;"/><path d="M83.01,81.56c1.45.93,3.21,1.33,4.95,1.11,4.41-.54,13.09-2.27,19.67-7.66,5.28-4.33,8.18-11.33,9.69-16.51.32-1.09-1.1-1.81-1.81-.92-2.95,3.65-6.96,6.55-9.86,8.38-1.25.78-.88,2.69.57,2.95l.9.17c1.23.23,1.76,1.73.92,2.66-6.65,7.38-19.65,8.54-24.68,8.71-.63.02-.87.78-.35,1.12h0Z" style="fill:#f2f2f3;"/><path d="M70.93,101.18h0c.6.46,1.44.44,2.02-.05,1.86-1.59,6.82-5.28,17.75-10.49,14.88-7.09,22.22-17.36,22.22-17.36,0,0-7.73,9.36-22.41,15.91-14.68,6.54-19.57,12-19.57,12h-.01Z" style="fill:#f2f2f3;"/><path d="M57.03,93.91s-12.82-6.82-19.57-9.36-13.9-12-13.9-12c4.8,9.72,16.44,14.72,27.01,20,6.57,3.28,11.75,6.94,14.72,9.25,1.06.82,2.6.06,2.6-1.28V.15c-.39,0-.78,0-1.17.01v85.85c-.39,13-9.69,7.91-9.69,7.91h0Z" style="fill:#f2f2f3;"/><path d="M73.14,2.11l.91,48.12s0,.08,0,.12c-.09,1.38-1.56,28.35,14.31,27.96,10.38-.26,15.85-3.51,18.45-5.84,1.02-.91.55-2.59-.8-2.81l-2.4-.4c-1.49-.25-1.86-2.2-.57-2.98,4.12-2.48,10.41-7.02,14.41-13.51.75-1.22,2.58-.98,2.95.4,1.42,5.22,3.03,15.03-1.73,23.25-.66,1.14-2.34,1.03-2.87-.17l-.28-.62c-.5-1.12-2-1.3-2.75-.34-2.65,3.43-8.98,10.06-21.55,15.68-15.74,7.04-21.88,13.92-23.1,15.44v.31s-.04-.06-.12-.16c-.08.1-.12.16-.12.16v-.31c-1.22-1.52-7.36-8.4-23.1-15.44-12.57-5.62-18.9-12.25-21.55-15.68-.75-.97-2.25-.78-2.75.34l-.28.62c-.53,1.2-2.22,1.3-2.87.17-4.75-8.21-3.15-18.03-1.72-23.25.38-1.39,2.2-1.63,2.95-.4,4,6.49,10.29,11.03,14.41,13.51,1.29.78.92,2.73-.57,2.98l-2.41.4c-1.35.22-1.82,1.9-.8,2.81,2.6,2.32,8.06,5.57,18.45,5.84,15.87.4,14.4-26.57,14.31-27.96,0-.04,0-.08,0-.12l.91-48.12c.02-.96-.8-1.74-1.75-1.65C26.93,3.67.24,30.49.24,63.08s30.34,62.94,67.77,62.94,67.77-28.18,67.77-62.94S109.09,3.61,74.9.46c-.95-.09-1.77.69-1.75,1.65Z" style="fill:#121212;"/></g></g></g></svg>